<mxfile host="app.diagrams.net" agent="Mozilla/5.0 (Windows NT 10.0; Win64; x64) AppleWebKit/537.36 (KHTML, like Gecko) Chrome/137.0.0.0 Safari/537.36" version="27.1.6">
  <diagram name="Page-1" id="0783ab3e-0a74-02c8-0abd-f7b4e66b4bec">
    <mxGraphModel dx="2208" dy="1851" grid="1" gridSize="10" guides="1" tooltips="1" connect="1" arrows="1" fold="1" page="1" pageScale="1" pageWidth="850" pageHeight="1100" background="none" math="0" shadow="0">
      <root>
        <mxCell id="0" />
        <mxCell id="1" parent="0" />
        <mxCell id="A5cPuoOQGIZ8REnbMsVx-27" value="wzh::Util::Date" style="swimlane;fontStyle=1;align=center;verticalAlign=top;childLayout=stackLayout;horizontal=1;startSize=26;horizontalStack=0;resizeParent=1;resizeParentMax=0;resizeLast=0;collapsible=1;marginBottom=0;whiteSpace=wrap;html=1;" vertex="1" parent="1">
          <mxGeometry x="-140" y="-20" width="600" height="110" as="geometry" />
        </mxCell>
        <mxCell id="A5cPuoOQGIZ8REnbMsVx-29" value="" style="line;strokeWidth=1;fillColor=none;align=left;verticalAlign=middle;spacingTop=-1;spacingLeft=3;spacingRight=3;rotatable=0;labelPosition=right;points=[];portConstraint=eastwest;strokeColor=inherit;" vertex="1" parent="A5cPuoOQGIZ8REnbMsVx-27">
          <mxGeometry y="26" width="600" height="8" as="geometry" />
        </mxCell>
        <mxCell id="A5cPuoOQGIZ8REnbMsVx-30" value="&lt;div&gt;&amp;nbsp;//返回当前时间戳&lt;/div&gt;&lt;div&gt;+&amp;nbsp;static time_t now()&lt;/div&gt;&lt;div&gt;//根据当前时间戳返回时间日期的格式化字符串&lt;/div&gt;&lt;div&gt;+&amp;nbsp;&amp;nbsp;static std::string dateTime(const std::string &amp;amp;format = &quot;%Y-%m-%d %H:%M:%S&quot;, time_t timestamp = now())&lt;/div&gt;" style="text;align=left;verticalAlign=top;spacingLeft=4;spacingRight=4;overflow=hidden;rotatable=0;points=[[0,0.5],[1,0.5]];portConstraint=eastwest;whiteSpace=wrap;html=1;" vertex="1" parent="A5cPuoOQGIZ8REnbMsVx-27">
          <mxGeometry y="34" width="600" height="76" as="geometry" />
        </mxCell>
        <mxCell id="A5cPuoOQGIZ8REnbMsVx-39" value="wzh::Util::File" style="swimlane;fontStyle=1;align=center;verticalAlign=top;childLayout=stackLayout;horizontal=1;startSize=26;horizontalStack=0;resizeParent=1;resizeParentMax=0;resizeLast=0;collapsible=1;marginBottom=0;whiteSpace=wrap;html=1;" vertex="1" parent="1">
          <mxGeometry x="-140" y="110" width="310" height="130" as="geometry" />
        </mxCell>
        <mxCell id="A5cPuoOQGIZ8REnbMsVx-41" value="" style="line;strokeWidth=1;fillColor=none;align=left;verticalAlign=middle;spacingTop=-1;spacingLeft=3;spacingRight=3;rotatable=0;labelPosition=right;points=[];portConstraint=eastwest;strokeColor=inherit;" vertex="1" parent="A5cPuoOQGIZ8REnbMsVx-39">
          <mxGeometry y="26" width="310" height="8" as="geometry" />
        </mxCell>
        <mxCell id="A5cPuoOQGIZ8REnbMsVx-42" value="//检测文件是否存在&lt;div&gt;+&amp;nbsp;static bool exist(const std::string &amp;amp;pathname)&lt;/div&gt;&lt;div&gt;// 返回文件路径&lt;/div&gt;&lt;div&gt;+&amp;nbsp;static std::string path(const std::string &amp;amp;pathname)&lt;/div&gt;&lt;div&gt;// 创建目录&amp;nbsp;&lt;/div&gt;&lt;div&gt;+&amp;nbsp;static bool createPath(const std::string &amp;amp;pathname)&lt;/div&gt;" style="text;strokeColor=none;fillColor=none;align=left;verticalAlign=top;spacingLeft=4;spacingRight=4;overflow=hidden;rotatable=0;points=[[0,0.5],[1,0.5]];portConstraint=eastwest;whiteSpace=wrap;html=1;" vertex="1" parent="A5cPuoOQGIZ8REnbMsVx-39">
          <mxGeometry y="34" width="310" height="96" as="geometry" />
        </mxCell>
        <mxCell id="A5cPuoOQGIZ8REnbMsVx-43" value="wzh::Message" style="swimlane;fontStyle=1;align=center;verticalAlign=top;childLayout=stackLayout;horizontal=1;startSize=26;horizontalStack=0;resizeParent=1;resizeParentMax=0;resizeLast=0;collapsible=1;marginBottom=0;whiteSpace=wrap;html=1;" vertex="1" parent="1">
          <mxGeometry x="210" y="120" width="530" height="180" as="geometry" />
        </mxCell>
        <mxCell id="A5cPuoOQGIZ8REnbMsVx-44" value="&lt;div&gt;+ size_t _line;&lt;/div&gt;&lt;div&gt;+ time_t _time;&lt;/div&gt;&lt;div&gt;+ std::thread::id _tid;&lt;/div&gt;&lt;div&gt;+ std::string _name; //日志器名称&lt;/div&gt;&lt;div&gt;+ std::string _file;&lt;/div&gt;&lt;div&gt;+ std::string _payload;&lt;/div&gt;&lt;div&gt;+ Level::value _level;&lt;/div&gt;" style="text;strokeColor=none;fillColor=none;align=left;verticalAlign=top;spacingLeft=4;spacingRight=4;overflow=hidden;rotatable=0;points=[[0,0.5],[1,0.5]];portConstraint=eastwest;whiteSpace=wrap;html=1;" vertex="1" parent="A5cPuoOQGIZ8REnbMsVx-43">
          <mxGeometry y="26" width="530" height="114" as="geometry" />
        </mxCell>
        <mxCell id="A5cPuoOQGIZ8REnbMsVx-45" value="" style="line;strokeWidth=1;fillColor=none;align=left;verticalAlign=middle;spacingTop=-1;spacingLeft=3;spacingRight=3;rotatable=0;labelPosition=right;points=[];portConstraint=eastwest;strokeColor=inherit;" vertex="1" parent="A5cPuoOQGIZ8REnbMsVx-43">
          <mxGeometry y="140" width="530" height="8" as="geometry" />
        </mxCell>
        <mxCell id="A5cPuoOQGIZ8REnbMsVx-46" value="+&amp;nbsp;&lt;span style=&quot;background-color: transparent;&quot;&gt;Message(size_t line, std::string &amp;amp;name, std::string &amp;amp;file,&amp;nbsp;&lt;/span&gt;&lt;span style=&quot;background-color: transparent; color: light-dark(rgb(0, 0, 0), rgb(255, 255, 255));&quot;&gt;std::string &amp;amp;payload, Level::value level)&lt;/span&gt;" style="text;strokeColor=none;fillColor=none;align=left;verticalAlign=top;spacingLeft=4;spacingRight=4;overflow=hidden;rotatable=0;points=[[0,0.5],[1,0.5]];portConstraint=eastwest;whiteSpace=wrap;html=1;" vertex="1" parent="A5cPuoOQGIZ8REnbMsVx-43">
          <mxGeometry y="148" width="530" height="32" as="geometry" />
        </mxCell>
        <mxCell id="A5cPuoOQGIZ8REnbMsVx-47" value="wzh::Level" style="swimlane;fontStyle=1;align=center;verticalAlign=top;childLayout=stackLayout;horizontal=1;startSize=26;horizontalStack=0;resizeParent=1;resizeParentMax=0;resizeLast=0;collapsible=1;marginBottom=0;whiteSpace=wrap;html=1;" vertex="1" parent="1">
          <mxGeometry x="-140" y="310" width="290" height="214" as="geometry" />
        </mxCell>
        <mxCell id="A5cPuoOQGIZ8REnbMsVx-48" value="+&amp;nbsp;&lt;span style=&quot;background-color: transparent;&quot;&gt;enum class value&lt;/span&gt;&lt;div&gt;&amp;nbsp; &amp;nbsp;{&lt;/div&gt;&lt;div&gt;&amp;nbsp; &amp;nbsp; &amp;nbsp; &amp;nbsp; UNKNOW = 0,&lt;/div&gt;&lt;div&gt;&amp;nbsp; &amp;nbsp; &amp;nbsp; &amp;nbsp; DEBUG,&lt;/div&gt;&lt;div&gt;&amp;nbsp; &amp;nbsp; &amp;nbsp; &amp;nbsp; INFO,&lt;/div&gt;&lt;div&gt;&amp;nbsp; &amp;nbsp; &amp;nbsp; &amp;nbsp; WARN,&lt;/div&gt;&lt;div&gt;&amp;nbsp; &amp;nbsp; &amp;nbsp; &amp;nbsp; ERROR,&lt;/div&gt;&lt;div&gt;&amp;nbsp; &amp;nbsp; &amp;nbsp; &amp;nbsp; FATAL,&lt;/div&gt;&lt;div&gt;&amp;nbsp; &amp;nbsp; &amp;nbsp; &amp;nbsp; OFF&lt;/div&gt;&lt;div&gt;&amp;nbsp; &amp;nbsp;};&lt;/div&gt;" style="text;strokeColor=none;fillColor=none;align=left;verticalAlign=top;spacingLeft=4;spacingRight=4;overflow=hidden;rotatable=0;points=[[0,0.5],[1,0.5]];portConstraint=eastwest;whiteSpace=wrap;html=1;" vertex="1" parent="A5cPuoOQGIZ8REnbMsVx-47">
          <mxGeometry y="26" width="290" height="154" as="geometry" />
        </mxCell>
        <mxCell id="A5cPuoOQGIZ8REnbMsVx-49" value="" style="line;strokeWidth=1;fillColor=none;align=left;verticalAlign=middle;spacingTop=-1;spacingLeft=3;spacingRight=3;rotatable=0;labelPosition=right;points=[];portConstraint=eastwest;strokeColor=inherit;" vertex="1" parent="A5cPuoOQGIZ8REnbMsVx-47">
          <mxGeometry y="180" width="290" height="8" as="geometry" />
        </mxCell>
        <mxCell id="A5cPuoOQGIZ8REnbMsVx-50" value="+&amp;nbsp;static const char* toString(const Level::value val)" style="text;strokeColor=none;fillColor=none;align=left;verticalAlign=top;spacingLeft=4;spacingRight=4;overflow=hidden;rotatable=0;points=[[0,0.5],[1,0.5]];portConstraint=eastwest;whiteSpace=wrap;html=1;" vertex="1" parent="A5cPuoOQGIZ8REnbMsVx-47">
          <mxGeometry y="188" width="290" height="26" as="geometry" />
        </mxCell>
        <mxCell id="A5cPuoOQGIZ8REnbMsVx-79" style="edgeStyle=orthogonalEdgeStyle;rounded=0;orthogonalLoop=1;jettySize=auto;html=1;exitX=0.5;exitY=1;exitDx=0;exitDy=0;entryX=0.5;entryY=0;entryDx=0;entryDy=0;" edge="1" parent="1" source="A5cPuoOQGIZ8REnbMsVx-51" target="A5cPuoOQGIZ8REnbMsVx-55">
          <mxGeometry relative="1" as="geometry" />
        </mxCell>
        <mxCell id="A5cPuoOQGIZ8REnbMsVx-80" style="edgeStyle=orthogonalEdgeStyle;rounded=0;orthogonalLoop=1;jettySize=auto;html=1;exitX=0.5;exitY=1;exitDx=0;exitDy=0;entryX=0.5;entryY=0;entryDx=0;entryDy=0;" edge="1" parent="1" source="A5cPuoOQGIZ8REnbMsVx-51" target="A5cPuoOQGIZ8REnbMsVx-59">
          <mxGeometry relative="1" as="geometry" />
        </mxCell>
        <mxCell id="A5cPuoOQGIZ8REnbMsVx-81" style="edgeStyle=orthogonalEdgeStyle;rounded=0;orthogonalLoop=1;jettySize=auto;html=1;exitX=0.5;exitY=1;exitDx=0;exitDy=0;" edge="1" parent="1" source="A5cPuoOQGIZ8REnbMsVx-51" target="A5cPuoOQGIZ8REnbMsVx-63">
          <mxGeometry relative="1" as="geometry" />
        </mxCell>
        <mxCell id="A5cPuoOQGIZ8REnbMsVx-82" value="派生" style="edgeLabel;html=1;align=center;verticalAlign=middle;resizable=0;points=[];" vertex="1" connectable="0" parent="A5cPuoOQGIZ8REnbMsVx-81">
          <mxGeometry x="-0.8947" relative="1" as="geometry">
            <mxPoint as="offset" />
          </mxGeometry>
        </mxCell>
        <mxCell id="A5cPuoOQGIZ8REnbMsVx-51" value="wzh::Sink" style="swimlane;fontStyle=1;align=center;verticalAlign=top;childLayout=stackLayout;horizontal=1;startSize=26;horizontalStack=0;resizeParent=1;resizeParentMax=0;resizeLast=0;collapsible=1;marginBottom=0;whiteSpace=wrap;html=1;" vertex="1" parent="1">
          <mxGeometry x="300" y="480" width="310" height="60" as="geometry" />
        </mxCell>
        <mxCell id="A5cPuoOQGIZ8REnbMsVx-53" value="" style="line;strokeWidth=1;fillColor=none;align=left;verticalAlign=middle;spacingTop=-1;spacingLeft=3;spacingRight=3;rotatable=0;labelPosition=right;points=[];portConstraint=eastwest;strokeColor=inherit;" vertex="1" parent="A5cPuoOQGIZ8REnbMsVx-51">
          <mxGeometry y="26" width="310" height="8" as="geometry" />
        </mxCell>
        <mxCell id="A5cPuoOQGIZ8REnbMsVx-54" value="+&amp;nbsp;virtual bool log(const std::string &amp;amp;data, size_t len) = 0;" style="text;strokeColor=none;fillColor=none;align=left;verticalAlign=top;spacingLeft=4;spacingRight=4;overflow=hidden;rotatable=0;points=[[0,0.5],[1,0.5]];portConstraint=eastwest;whiteSpace=wrap;html=1;" vertex="1" parent="A5cPuoOQGIZ8REnbMsVx-51">
          <mxGeometry y="34" width="310" height="26" as="geometry" />
        </mxCell>
        <mxCell id="A5cPuoOQGIZ8REnbMsVx-55" value="wzh::StdoutSink" style="swimlane;fontStyle=1;align=center;verticalAlign=top;childLayout=stackLayout;horizontal=1;startSize=26;horizontalStack=0;resizeParent=1;resizeParentMax=0;resizeLast=0;collapsible=1;marginBottom=0;whiteSpace=wrap;html=1;" vertex="1" parent="1">
          <mxGeometry y="656" width="250" height="60" as="geometry" />
        </mxCell>
        <mxCell id="A5cPuoOQGIZ8REnbMsVx-57" value="" style="line;strokeWidth=1;fillColor=none;align=left;verticalAlign=middle;spacingTop=-1;spacingLeft=3;spacingRight=3;rotatable=0;labelPosition=right;points=[];portConstraint=eastwest;strokeColor=inherit;" vertex="1" parent="A5cPuoOQGIZ8REnbMsVx-55">
          <mxGeometry y="26" width="250" height="8" as="geometry" />
        </mxCell>
        <mxCell id="A5cPuoOQGIZ8REnbMsVx-58" value="+&amp;nbsp;bool log(const std::string &amp;amp;data, size_t len)" style="text;strokeColor=none;fillColor=none;align=left;verticalAlign=top;spacingLeft=4;spacingRight=4;overflow=hidden;rotatable=0;points=[[0,0.5],[1,0.5]];portConstraint=eastwest;whiteSpace=wrap;html=1;" vertex="1" parent="A5cPuoOQGIZ8REnbMsVx-55">
          <mxGeometry y="34" width="250" height="26" as="geometry" />
        </mxCell>
        <mxCell id="A5cPuoOQGIZ8REnbMsVx-59" value="wzh::FileSink" style="swimlane;fontStyle=1;align=center;verticalAlign=top;childLayout=stackLayout;horizontal=1;startSize=26;horizontalStack=0;resizeParent=1;resizeParentMax=0;resizeLast=0;collapsible=1;marginBottom=0;whiteSpace=wrap;html=1;" vertex="1" parent="1">
          <mxGeometry x="330" y="656" width="250" height="130" as="geometry" />
        </mxCell>
        <mxCell id="A5cPuoOQGIZ8REnbMsVx-60" value="-&amp;nbsp;std::ofstream _ofs;&lt;div&gt;-&amp;nbsp;std::string _filename;&lt;/div&gt;" style="text;strokeColor=none;fillColor=none;align=left;verticalAlign=top;spacingLeft=4;spacingRight=4;overflow=hidden;rotatable=0;points=[[0,0.5],[1,0.5]];portConstraint=eastwest;whiteSpace=wrap;html=1;" vertex="1" parent="A5cPuoOQGIZ8REnbMsVx-59">
          <mxGeometry y="26" width="250" height="44" as="geometry" />
        </mxCell>
        <mxCell id="A5cPuoOQGIZ8REnbMsVx-61" value="" style="line;strokeWidth=1;fillColor=none;align=left;verticalAlign=middle;spacingTop=-1;spacingLeft=3;spacingRight=3;rotatable=0;labelPosition=right;points=[];portConstraint=eastwest;strokeColor=inherit;" vertex="1" parent="A5cPuoOQGIZ8REnbMsVx-59">
          <mxGeometry y="70" width="250" height="8" as="geometry" />
        </mxCell>
        <mxCell id="A5cPuoOQGIZ8REnbMsVx-62" value="&lt;div&gt;+&amp;nbsp;FileSink(const std::string &amp;amp;filename)&lt;/div&gt;&lt;div&gt;+&amp;nbsp;~FileSink()&amp;nbsp;&lt;/div&gt;+&amp;nbsp;bool log(const std::string &amp;amp;data, size_t len)" style="text;strokeColor=none;fillColor=none;align=left;verticalAlign=top;spacingLeft=4;spacingRight=4;overflow=hidden;rotatable=0;points=[[0,0.5],[1,0.5]];portConstraint=eastwest;whiteSpace=wrap;html=1;" vertex="1" parent="A5cPuoOQGIZ8REnbMsVx-59">
          <mxGeometry y="78" width="250" height="52" as="geometry" />
        </mxCell>
        <mxCell id="A5cPuoOQGIZ8REnbMsVx-63" value="wzh::RollSinkBySize" style="swimlane;fontStyle=1;align=center;verticalAlign=top;childLayout=stackLayout;horizontal=1;startSize=26;horizontalStack=0;resizeParent=1;resizeParentMax=0;resizeLast=0;collapsible=1;marginBottom=0;whiteSpace=wrap;html=1;" vertex="1" parent="1">
          <mxGeometry x="670" y="656" width="470" height="218" as="geometry" />
        </mxCell>
        <mxCell id="A5cPuoOQGIZ8REnbMsVx-64" value="&lt;div&gt;- std::string _basename;&lt;/div&gt;&lt;div&gt;- std::string _curfilename;&lt;/div&gt;&lt;div&gt;- std::ofstream _ofs;&lt;/div&gt;&lt;div&gt;- size_t _maxsize;&lt;/div&gt;&lt;div&gt;- size_t _count;&lt;/div&gt;&lt;div&gt;- size_t _cursize;&lt;/div&gt;" style="text;strokeColor=none;fillColor=none;align=left;verticalAlign=top;spacingLeft=4;spacingRight=4;overflow=hidden;rotatable=0;points=[[0,0.5],[1,0.5]];portConstraint=eastwest;whiteSpace=wrap;html=1;" vertex="1" parent="A5cPuoOQGIZ8REnbMsVx-63">
          <mxGeometry y="26" width="470" height="94" as="geometry" />
        </mxCell>
        <mxCell id="A5cPuoOQGIZ8REnbMsVx-65" value="" style="line;strokeWidth=1;fillColor=none;align=left;verticalAlign=middle;spacingTop=-1;spacingLeft=3;spacingRight=3;rotatable=0;labelPosition=right;points=[];portConstraint=eastwest;strokeColor=inherit;" vertex="1" parent="A5cPuoOQGIZ8REnbMsVx-63">
          <mxGeometry y="120" width="470" height="8" as="geometry" />
        </mxCell>
        <mxCell id="A5cPuoOQGIZ8REnbMsVx-66" value="+&amp;nbsp;RollSinkBySize(std::string &amp;amp;basename, size_t maxsize = 1024 * 1024)&lt;div&gt;+&amp;nbsp;~RollSinkBySize()&lt;/div&gt;&lt;div&gt;+&amp;nbsp;bool log(const std::string &amp;amp;data, size_t len) override&lt;/div&gt;&lt;div&gt;-&amp;nbsp;bool init()&lt;/div&gt;&lt;div&gt;-&amp;nbsp;std::string getRollfileName()&lt;/div&gt;&lt;div&gt;&lt;br&gt;&lt;/div&gt;" style="text;strokeColor=none;fillColor=none;align=left;verticalAlign=top;spacingLeft=4;spacingRight=4;overflow=hidden;rotatable=0;points=[[0,0.5],[1,0.5]];portConstraint=eastwest;whiteSpace=wrap;html=1;" vertex="1" parent="A5cPuoOQGIZ8REnbMsVx-63">
          <mxGeometry y="128" width="470" height="90" as="geometry" />
        </mxCell>
        <mxCell id="A5cPuoOQGIZ8REnbMsVx-85" style="edgeStyle=orthogonalEdgeStyle;rounded=0;orthogonalLoop=1;jettySize=auto;html=1;" edge="1" parent="1" source="A5cPuoOQGIZ8REnbMsVx-71" target="A5cPuoOQGIZ8REnbMsVx-51">
          <mxGeometry relative="1" as="geometry" />
        </mxCell>
        <mxCell id="A5cPuoOQGIZ8REnbMsVx-86" value="实例化" style="edgeLabel;html=1;align=center;verticalAlign=middle;resizable=0;points=[];" vertex="1" connectable="0" parent="A5cPuoOQGIZ8REnbMsVx-85">
          <mxGeometry x="-0.169" relative="1" as="geometry">
            <mxPoint as="offset" />
          </mxGeometry>
        </mxCell>
        <mxCell id="A5cPuoOQGIZ8REnbMsVx-71" value="wzh::SinkFactory" style="swimlane;fontStyle=1;align=center;verticalAlign=top;childLayout=stackLayout;horizontal=1;startSize=26;horizontalStack=0;resizeParent=1;resizeParentMax=0;resizeLast=0;collapsible=1;marginBottom=0;whiteSpace=wrap;html=1;" vertex="1" parent="1">
          <mxGeometry x="340" y="340" width="230" height="60" as="geometry" />
        </mxCell>
        <mxCell id="A5cPuoOQGIZ8REnbMsVx-73" value="" style="line;strokeWidth=1;fillColor=none;align=left;verticalAlign=middle;spacingTop=-1;spacingLeft=3;spacingRight=3;rotatable=0;labelPosition=right;points=[];portConstraint=eastwest;strokeColor=inherit;" vertex="1" parent="A5cPuoOQGIZ8REnbMsVx-71">
          <mxGeometry y="26" width="230" height="8" as="geometry" />
        </mxCell>
        <mxCell id="A5cPuoOQGIZ8REnbMsVx-74" value="+&amp;nbsp;static Sink::ptr create(Args &amp;amp;&amp;amp;...args)" style="text;strokeColor=none;fillColor=none;align=left;verticalAlign=top;spacingLeft=4;spacingRight=4;overflow=hidden;rotatable=0;points=[[0,0.5],[1,0.5]];portConstraint=eastwest;whiteSpace=wrap;html=1;" vertex="1" parent="A5cPuoOQGIZ8REnbMsVx-71">
          <mxGeometry y="34" width="230" height="26" as="geometry" />
        </mxCell>
        <mxCell id="A5cPuoOQGIZ8REnbMsVx-87" value="wzh::FormatterItem" style="swimlane;fontStyle=1;align=center;verticalAlign=top;childLayout=stackLayout;horizontal=1;startSize=26;horizontalStack=0;resizeParent=1;resizeParentMax=0;resizeLast=0;collapsible=1;marginBottom=0;whiteSpace=wrap;html=1;" vertex="1" parent="1">
          <mxGeometry x="1510" y="135" width="380" height="80" as="geometry" />
        </mxCell>
        <mxCell id="A5cPuoOQGIZ8REnbMsVx-89" value="" style="line;strokeWidth=1;fillColor=none;align=left;verticalAlign=middle;spacingTop=-1;spacingLeft=3;spacingRight=3;rotatable=0;labelPosition=right;points=[];portConstraint=eastwest;strokeColor=inherit;" vertex="1" parent="A5cPuoOQGIZ8REnbMsVx-87">
          <mxGeometry y="26" width="380" height="8" as="geometry" />
        </mxCell>
        <mxCell id="A5cPuoOQGIZ8REnbMsVx-90" value="+&amp;nbsp;virtual bool formatter(std::ostream &amp;amp;out, const Message &amp;amp;msg) = 0;&lt;div&gt;+&amp;nbsp;virtual ~FormatterItem();&lt;/div&gt;" style="text;strokeColor=none;fillColor=none;align=left;verticalAlign=top;spacingLeft=4;spacingRight=4;overflow=hidden;rotatable=0;points=[[0,0.5],[1,0.5]];portConstraint=eastwest;whiteSpace=wrap;html=1;" vertex="1" parent="A5cPuoOQGIZ8REnbMsVx-87">
          <mxGeometry y="34" width="380" height="46" as="geometry" />
        </mxCell>
        <mxCell id="A5cPuoOQGIZ8REnbMsVx-91" value="wzh::msgFormatterItem" style="swimlane;fontStyle=1;align=center;verticalAlign=top;childLayout=stackLayout;horizontal=1;startSize=26;horizontalStack=0;resizeParent=1;resizeParentMax=0;resizeLast=0;collapsible=1;marginBottom=0;whiteSpace=wrap;html=1;" vertex="1" parent="1">
          <mxGeometry x="1310" y="294" width="330" height="60" as="geometry" />
        </mxCell>
        <mxCell id="A5cPuoOQGIZ8REnbMsVx-93" value="" style="line;strokeWidth=1;fillColor=none;align=left;verticalAlign=middle;spacingTop=-1;spacingLeft=3;spacingRight=3;rotatable=0;labelPosition=right;points=[];portConstraint=eastwest;strokeColor=inherit;" vertex="1" parent="A5cPuoOQGIZ8REnbMsVx-91">
          <mxGeometry y="26" width="330" height="8" as="geometry" />
        </mxCell>
        <mxCell id="A5cPuoOQGIZ8REnbMsVx-94" value="+&amp;nbsp;bool formatter(std::ostream &amp;amp;out, const Message &amp;amp;msg)" style="text;strokeColor=none;fillColor=none;align=left;verticalAlign=top;spacingLeft=4;spacingRight=4;overflow=hidden;rotatable=0;points=[[0,0.5],[1,0.5]];portConstraint=eastwest;whiteSpace=wrap;html=1;" vertex="1" parent="A5cPuoOQGIZ8REnbMsVx-91">
          <mxGeometry y="34" width="330" height="26" as="geometry" />
        </mxCell>
        <mxCell id="A5cPuoOQGIZ8REnbMsVx-95" value="wzh::levelFormatterIter" style="swimlane;fontStyle=1;align=center;verticalAlign=top;childLayout=stackLayout;horizontal=1;startSize=26;horizontalStack=0;resizeParent=1;resizeParentMax=0;resizeLast=0;collapsible=1;marginBottom=0;whiteSpace=wrap;html=1;" vertex="1" parent="1">
          <mxGeometry x="1760" y="294" width="320" height="60" as="geometry" />
        </mxCell>
        <mxCell id="A5cPuoOQGIZ8REnbMsVx-97" value="" style="line;strokeWidth=1;fillColor=none;align=left;verticalAlign=middle;spacingTop=-1;spacingLeft=3;spacingRight=3;rotatable=0;labelPosition=right;points=[];portConstraint=eastwest;strokeColor=inherit;" vertex="1" parent="A5cPuoOQGIZ8REnbMsVx-95">
          <mxGeometry y="26" width="320" height="8" as="geometry" />
        </mxCell>
        <mxCell id="A5cPuoOQGIZ8REnbMsVx-98" value="+&amp;nbsp;bool formatter(std::ostream &amp;amp;out, const Message &amp;amp;msg)" style="text;strokeColor=none;fillColor=none;align=left;verticalAlign=top;spacingLeft=4;spacingRight=4;overflow=hidden;rotatable=0;points=[[0,0.5],[1,0.5]];portConstraint=eastwest;whiteSpace=wrap;html=1;" vertex="1" parent="A5cPuoOQGIZ8REnbMsVx-95">
          <mxGeometry y="34" width="320" height="26" as="geometry" />
        </mxCell>
        <mxCell id="A5cPuoOQGIZ8REnbMsVx-99" value="wzh::nameFormatterItem" style="swimlane;fontStyle=1;align=center;verticalAlign=top;childLayout=stackLayout;horizontal=1;startSize=26;horizontalStack=0;resizeParent=1;resizeParentMax=0;resizeLast=0;collapsible=1;marginBottom=0;whiteSpace=wrap;html=1;" vertex="1" parent="1">
          <mxGeometry x="1310" y="414" width="330" height="60" as="geometry" />
        </mxCell>
        <mxCell id="A5cPuoOQGIZ8REnbMsVx-100" value="" style="line;strokeWidth=1;fillColor=none;align=left;verticalAlign=middle;spacingTop=-1;spacingLeft=3;spacingRight=3;rotatable=0;labelPosition=right;points=[];portConstraint=eastwest;strokeColor=inherit;" vertex="1" parent="A5cPuoOQGIZ8REnbMsVx-99">
          <mxGeometry y="26" width="330" height="8" as="geometry" />
        </mxCell>
        <mxCell id="A5cPuoOQGIZ8REnbMsVx-101" value="+&amp;nbsp;bool formatter(std::ostream &amp;amp;out, const Message &amp;amp;msg)" style="text;strokeColor=none;fillColor=none;align=left;verticalAlign=top;spacingLeft=4;spacingRight=4;overflow=hidden;rotatable=0;points=[[0,0.5],[1,0.5]];portConstraint=eastwest;whiteSpace=wrap;html=1;" vertex="1" parent="A5cPuoOQGIZ8REnbMsVx-99">
          <mxGeometry y="34" width="330" height="26" as="geometry" />
        </mxCell>
        <mxCell id="A5cPuoOQGIZ8REnbMsVx-102" value="wzh::threadFormatterItem" style="swimlane;fontStyle=1;align=center;verticalAlign=top;childLayout=stackLayout;horizontal=1;startSize=26;horizontalStack=0;resizeParent=1;resizeParentMax=0;resizeLast=0;collapsible=1;marginBottom=0;whiteSpace=wrap;html=1;" vertex="1" parent="1">
          <mxGeometry x="1760" y="414" width="330" height="60" as="geometry" />
        </mxCell>
        <mxCell id="A5cPuoOQGIZ8REnbMsVx-103" value="" style="line;strokeWidth=1;fillColor=none;align=left;verticalAlign=middle;spacingTop=-1;spacingLeft=3;spacingRight=3;rotatable=0;labelPosition=right;points=[];portConstraint=eastwest;strokeColor=inherit;" vertex="1" parent="A5cPuoOQGIZ8REnbMsVx-102">
          <mxGeometry y="26" width="330" height="8" as="geometry" />
        </mxCell>
        <mxCell id="A5cPuoOQGIZ8REnbMsVx-104" value="+&amp;nbsp;bool formatter(std::ostream &amp;amp;out, const Message &amp;amp;msg)" style="text;strokeColor=none;fillColor=none;align=left;verticalAlign=top;spacingLeft=4;spacingRight=4;overflow=hidden;rotatable=0;points=[[0,0.5],[1,0.5]];portConstraint=eastwest;whiteSpace=wrap;html=1;" vertex="1" parent="A5cPuoOQGIZ8REnbMsVx-102">
          <mxGeometry y="34" width="330" height="26" as="geometry" />
        </mxCell>
        <mxCell id="A5cPuoOQGIZ8REnbMsVx-108" value="wzh::timeFormatterItem" style="swimlane;fontStyle=1;align=center;verticalAlign=top;childLayout=stackLayout;horizontal=1;startSize=26;horizontalStack=0;resizeParent=1;resizeParentMax=0;resizeLast=0;collapsible=1;marginBottom=0;whiteSpace=wrap;html=1;" vertex="1" parent="1">
          <mxGeometry x="1250" y="534" width="390" height="110" as="geometry" />
        </mxCell>
        <mxCell id="A5cPuoOQGIZ8REnbMsVx-109" value="-&amp;nbsp;std::string _format;" style="text;strokeColor=none;fillColor=none;align=left;verticalAlign=top;spacingLeft=4;spacingRight=4;overflow=hidden;rotatable=0;points=[[0,0.5],[1,0.5]];portConstraint=eastwest;whiteSpace=wrap;html=1;" vertex="1" parent="A5cPuoOQGIZ8REnbMsVx-108">
          <mxGeometry y="26" width="390" height="26" as="geometry" />
        </mxCell>
        <mxCell id="A5cPuoOQGIZ8REnbMsVx-110" value="" style="line;strokeWidth=1;fillColor=none;align=left;verticalAlign=middle;spacingTop=-1;spacingLeft=3;spacingRight=3;rotatable=0;labelPosition=right;points=[];portConstraint=eastwest;strokeColor=inherit;" vertex="1" parent="A5cPuoOQGIZ8REnbMsVx-108">
          <mxGeometry y="52" width="390" height="8" as="geometry" />
        </mxCell>
        <mxCell id="A5cPuoOQGIZ8REnbMsVx-111" value="+&amp;nbsp;timeFormatterItem(const std::string &amp;amp;str = &quot;%Y-%m-%d %H:%M:%S&quot;)&lt;div&gt;+&amp;nbsp;bool formatter(std::ostream &amp;amp;out, const Message &amp;amp;msg)&lt;/div&gt;" style="text;strokeColor=none;fillColor=none;align=left;verticalAlign=top;spacingLeft=4;spacingRight=4;overflow=hidden;rotatable=0;points=[[0,0.5],[1,0.5]];portConstraint=eastwest;whiteSpace=wrap;html=1;" vertex="1" parent="A5cPuoOQGIZ8REnbMsVx-108">
          <mxGeometry y="60" width="390" height="50" as="geometry" />
        </mxCell>
        <mxCell id="A5cPuoOQGIZ8REnbMsVx-112" value="wzh::fileFormatterItem" style="swimlane;fontStyle=1;align=center;verticalAlign=top;childLayout=stackLayout;horizontal=1;startSize=26;horizontalStack=0;resizeParent=1;resizeParentMax=0;resizeLast=0;collapsible=1;marginBottom=0;whiteSpace=wrap;html=1;" vertex="1" parent="1">
          <mxGeometry x="1760" y="814" width="330" height="60" as="geometry" />
        </mxCell>
        <mxCell id="A5cPuoOQGIZ8REnbMsVx-113" value="" style="line;strokeWidth=1;fillColor=none;align=left;verticalAlign=middle;spacingTop=-1;spacingLeft=3;spacingRight=3;rotatable=0;labelPosition=right;points=[];portConstraint=eastwest;strokeColor=inherit;" vertex="1" parent="A5cPuoOQGIZ8REnbMsVx-112">
          <mxGeometry y="26" width="330" height="8" as="geometry" />
        </mxCell>
        <mxCell id="A5cPuoOQGIZ8REnbMsVx-114" value="+&amp;nbsp;bool formatter(std::ostream &amp;amp;out, const Message &amp;amp;msg)" style="text;strokeColor=none;fillColor=none;align=left;verticalAlign=top;spacingLeft=4;spacingRight=4;overflow=hidden;rotatable=0;points=[[0,0.5],[1,0.5]];portConstraint=eastwest;whiteSpace=wrap;html=1;" vertex="1" parent="A5cPuoOQGIZ8REnbMsVx-112">
          <mxGeometry y="34" width="330" height="26" as="geometry" />
        </mxCell>
        <mxCell id="A5cPuoOQGIZ8REnbMsVx-115" value="wzh::lineFormatterItem" style="swimlane;fontStyle=1;align=center;verticalAlign=top;childLayout=stackLayout;horizontal=1;startSize=26;horizontalStack=0;resizeParent=1;resizeParentMax=0;resizeLast=0;collapsible=1;marginBottom=0;whiteSpace=wrap;html=1;" vertex="1" parent="1">
          <mxGeometry x="1760" y="704" width="330" height="60" as="geometry" />
        </mxCell>
        <mxCell id="A5cPuoOQGIZ8REnbMsVx-116" value="" style="line;strokeWidth=1;fillColor=none;align=left;verticalAlign=middle;spacingTop=-1;spacingLeft=3;spacingRight=3;rotatable=0;labelPosition=right;points=[];portConstraint=eastwest;strokeColor=inherit;" vertex="1" parent="A5cPuoOQGIZ8REnbMsVx-115">
          <mxGeometry y="26" width="330" height="8" as="geometry" />
        </mxCell>
        <mxCell id="A5cPuoOQGIZ8REnbMsVx-117" value="+&amp;nbsp;bool formatter(std::ostream &amp;amp;out, const Message &amp;amp;msg)" style="text;strokeColor=none;fillColor=none;align=left;verticalAlign=top;spacingLeft=4;spacingRight=4;overflow=hidden;rotatable=0;points=[[0,0.5],[1,0.5]];portConstraint=eastwest;whiteSpace=wrap;html=1;" vertex="1" parent="A5cPuoOQGIZ8REnbMsVx-115">
          <mxGeometry y="34" width="330" height="26" as="geometry" />
        </mxCell>
        <mxCell id="A5cPuoOQGIZ8REnbMsVx-118" value="wzh::tabFormatterItem" style="swimlane;fontStyle=1;align=center;verticalAlign=top;childLayout=stackLayout;horizontal=1;startSize=26;horizontalStack=0;resizeParent=1;resizeParentMax=0;resizeLast=0;collapsible=1;marginBottom=0;whiteSpace=wrap;html=1;" vertex="1" parent="1">
          <mxGeometry x="1310" y="705" width="330" height="60" as="geometry" />
        </mxCell>
        <mxCell id="A5cPuoOQGIZ8REnbMsVx-119" value="" style="line;strokeWidth=1;fillColor=none;align=left;verticalAlign=middle;spacingTop=-1;spacingLeft=3;spacingRight=3;rotatable=0;labelPosition=right;points=[];portConstraint=eastwest;strokeColor=inherit;" vertex="1" parent="A5cPuoOQGIZ8REnbMsVx-118">
          <mxGeometry y="26" width="330" height="8" as="geometry" />
        </mxCell>
        <mxCell id="A5cPuoOQGIZ8REnbMsVx-120" value="+&amp;nbsp;bool formatter(std::ostream &amp;amp;out, const Message &amp;amp;msg)" style="text;strokeColor=none;fillColor=none;align=left;verticalAlign=top;spacingLeft=4;spacingRight=4;overflow=hidden;rotatable=0;points=[[0,0.5],[1,0.5]];portConstraint=eastwest;whiteSpace=wrap;html=1;" vertex="1" parent="A5cPuoOQGIZ8REnbMsVx-118">
          <mxGeometry y="34" width="330" height="26" as="geometry" />
        </mxCell>
        <mxCell id="A5cPuoOQGIZ8REnbMsVx-121" value="wzh::nextFormatterItem" style="swimlane;fontStyle=1;align=center;verticalAlign=top;childLayout=stackLayout;horizontal=1;startSize=26;horizontalStack=0;resizeParent=1;resizeParentMax=0;resizeLast=0;collapsible=1;marginBottom=0;whiteSpace=wrap;html=1;" vertex="1" parent="1">
          <mxGeometry x="1310" y="814" width="330" height="60" as="geometry" />
        </mxCell>
        <mxCell id="A5cPuoOQGIZ8REnbMsVx-122" value="" style="line;strokeWidth=1;fillColor=none;align=left;verticalAlign=middle;spacingTop=-1;spacingLeft=3;spacingRight=3;rotatable=0;labelPosition=right;points=[];portConstraint=eastwest;strokeColor=inherit;" vertex="1" parent="A5cPuoOQGIZ8REnbMsVx-121">
          <mxGeometry y="26" width="330" height="8" as="geometry" />
        </mxCell>
        <mxCell id="A5cPuoOQGIZ8REnbMsVx-123" value="+&amp;nbsp;bool formatter(std::ostream &amp;amp;out, const Message &amp;amp;msg)" style="text;strokeColor=none;fillColor=none;align=left;verticalAlign=top;spacingLeft=4;spacingRight=4;overflow=hidden;rotatable=0;points=[[0,0.5],[1,0.5]];portConstraint=eastwest;whiteSpace=wrap;html=1;" vertex="1" parent="A5cPuoOQGIZ8REnbMsVx-121">
          <mxGeometry y="34" width="330" height="26" as="geometry" />
        </mxCell>
        <mxCell id="A5cPuoOQGIZ8REnbMsVx-124" value="wzh::otherFormatterItem" style="swimlane;fontStyle=1;align=center;verticalAlign=top;childLayout=stackLayout;horizontal=1;startSize=26;horizontalStack=0;resizeParent=1;resizeParentMax=0;resizeLast=0;collapsible=1;marginBottom=0;whiteSpace=wrap;html=1;" vertex="1" parent="1">
          <mxGeometry x="1760" y="538" width="330" height="110" as="geometry" />
        </mxCell>
        <mxCell id="A5cPuoOQGIZ8REnbMsVx-125" value="-&amp;nbsp;std::string _str;" style="text;strokeColor=none;fillColor=none;align=left;verticalAlign=top;spacingLeft=4;spacingRight=4;overflow=hidden;rotatable=0;points=[[0,0.5],[1,0.5]];portConstraint=eastwest;whiteSpace=wrap;html=1;" vertex="1" parent="A5cPuoOQGIZ8REnbMsVx-124">
          <mxGeometry y="26" width="330" height="26" as="geometry" />
        </mxCell>
        <mxCell id="A5cPuoOQGIZ8REnbMsVx-126" value="" style="line;strokeWidth=1;fillColor=none;align=left;verticalAlign=middle;spacingTop=-1;spacingLeft=3;spacingRight=3;rotatable=0;labelPosition=right;points=[];portConstraint=eastwest;strokeColor=inherit;" vertex="1" parent="A5cPuoOQGIZ8REnbMsVx-124">
          <mxGeometry y="52" width="330" height="8" as="geometry" />
        </mxCell>
        <mxCell id="A5cPuoOQGIZ8REnbMsVx-127" value="+&amp;nbsp;otherFormatterItem(const std::string &amp;amp;str = &quot;&quot;)&lt;div&gt;+&amp;nbsp;bool formatter(std::ostream &amp;amp;out, const Message &amp;amp;msg)&lt;/div&gt;" style="text;strokeColor=none;fillColor=none;align=left;verticalAlign=top;spacingLeft=4;spacingRight=4;overflow=hidden;rotatable=0;points=[[0,0.5],[1,0.5]];portConstraint=eastwest;whiteSpace=wrap;html=1;" vertex="1" parent="A5cPuoOQGIZ8REnbMsVx-124">
          <mxGeometry y="60" width="330" height="50" as="geometry" />
        </mxCell>
        <mxCell id="A5cPuoOQGIZ8REnbMsVx-128" value="wzh::Formatter" style="swimlane;fontStyle=1;align=center;verticalAlign=top;childLayout=stackLayout;horizontal=1;startSize=26;horizontalStack=0;resizeParent=1;resizeParentMax=0;resizeLast=0;collapsible=1;marginBottom=0;whiteSpace=wrap;html=1;" vertex="1" parent="1">
          <mxGeometry x="1425" y="-120" width="550" height="160" as="geometry" />
        </mxCell>
        <mxCell id="A5cPuoOQGIZ8REnbMsVx-129" value="-&amp;nbsp;std::string _pattern;&lt;div&gt;-&amp;nbsp;std::vector&amp;lt;FormatterItem::ptr&amp;gt; _items;&lt;/div&gt;" style="text;strokeColor=none;fillColor=none;align=left;verticalAlign=top;spacingLeft=4;spacingRight=4;overflow=hidden;rotatable=0;points=[[0,0.5],[1,0.5]];portConstraint=eastwest;whiteSpace=wrap;html=1;" vertex="1" parent="A5cPuoOQGIZ8REnbMsVx-128">
          <mxGeometry y="26" width="550" height="44" as="geometry" />
        </mxCell>
        <mxCell id="A5cPuoOQGIZ8REnbMsVx-130" value="" style="line;strokeWidth=1;fillColor=none;align=left;verticalAlign=middle;spacingTop=-1;spacingLeft=3;spacingRight=3;rotatable=0;labelPosition=right;points=[];portConstraint=eastwest;strokeColor=inherit;" vertex="1" parent="A5cPuoOQGIZ8REnbMsVx-128">
          <mxGeometry y="70" width="550" height="8" as="geometry" />
        </mxCell>
        <mxCell id="A5cPuoOQGIZ8REnbMsVx-131" value="+&amp;nbsp;Formatter(const std::string &amp;amp;pattern = &quot;[%d{%Y-%m-%d %H:%M:%S}][%t][%p][%c][%f:%l] %m%n&quot;)&lt;div&gt;+&amp;nbsp;void format(std::ostream &amp;amp;out, Message &amp;amp;msg)&lt;/div&gt;&lt;div&gt;+&amp;nbsp;std::string format(Message &amp;amp;msg)&lt;/div&gt;&lt;div&gt;-&amp;nbsp;FormatterItem::ptr createItem(const std::string &amp;amp;key, const std::string &amp;amp;val)&lt;/div&gt;&lt;div&gt;-&amp;nbsp;bool parsePattern()&lt;/div&gt;" style="text;strokeColor=none;fillColor=none;align=left;verticalAlign=top;spacingLeft=4;spacingRight=4;overflow=hidden;rotatable=0;points=[[0,0.5],[1,0.5]];portConstraint=eastwest;whiteSpace=wrap;html=1;" vertex="1" parent="A5cPuoOQGIZ8REnbMsVx-128">
          <mxGeometry y="78" width="550" height="82" as="geometry" />
        </mxCell>
        <mxCell id="A5cPuoOQGIZ8REnbMsVx-134" value="Use" style="endArrow=open;endSize=12;dashed=1;html=1;rounded=0;exitX=0.501;exitY=1.045;exitDx=0;exitDy=0;exitPerimeter=0;entryX=0.5;entryY=0;entryDx=0;entryDy=0;" edge="1" parent="1" source="A5cPuoOQGIZ8REnbMsVx-131" target="A5cPuoOQGIZ8REnbMsVx-87">
          <mxGeometry width="160" relative="1" as="geometry">
            <mxPoint x="1770" y="80" as="sourcePoint" />
            <mxPoint x="1930" y="80" as="targetPoint" />
          </mxGeometry>
        </mxCell>
        <mxCell id="A5cPuoOQGIZ8REnbMsVx-138" style="edgeStyle=orthogonalEdgeStyle;rounded=0;orthogonalLoop=1;jettySize=auto;html=1;entryX=0.5;entryY=0;entryDx=0;entryDy=0;" edge="1" parent="1" source="A5cPuoOQGIZ8REnbMsVx-90" target="A5cPuoOQGIZ8REnbMsVx-91">
          <mxGeometry relative="1" as="geometry" />
        </mxCell>
        <mxCell id="A5cPuoOQGIZ8REnbMsVx-148" value="派生" style="edgeLabel;html=1;align=center;verticalAlign=middle;resizable=0;points=[];" vertex="1" connectable="0" parent="A5cPuoOQGIZ8REnbMsVx-138">
          <mxGeometry x="0.1922" relative="1" as="geometry">
            <mxPoint as="offset" />
          </mxGeometry>
        </mxCell>
        <mxCell id="A5cPuoOQGIZ8REnbMsVx-139" style="edgeStyle=orthogonalEdgeStyle;rounded=0;orthogonalLoop=1;jettySize=auto;html=1;exitX=1;exitY=0.5;exitDx=0;exitDy=0;entryX=0.5;entryY=0;entryDx=0;entryDy=0;" edge="1" parent="1" source="A5cPuoOQGIZ8REnbMsVx-90" target="A5cPuoOQGIZ8REnbMsVx-95">
          <mxGeometry relative="1" as="geometry" />
        </mxCell>
        <mxCell id="A5cPuoOQGIZ8REnbMsVx-149" value="派生" style="edgeLabel;html=1;align=center;verticalAlign=middle;resizable=0;points=[];" vertex="1" connectable="0" parent="A5cPuoOQGIZ8REnbMsVx-139">
          <mxGeometry x="0.2374" y="-2" relative="1" as="geometry">
            <mxPoint as="offset" />
          </mxGeometry>
        </mxCell>
        <mxCell id="A5cPuoOQGIZ8REnbMsVx-140" style="edgeStyle=orthogonalEdgeStyle;rounded=0;orthogonalLoop=1;jettySize=auto;html=1;entryX=0.5;entryY=0;entryDx=0;entryDy=0;" edge="1" parent="1" source="A5cPuoOQGIZ8REnbMsVx-98" target="A5cPuoOQGIZ8REnbMsVx-102">
          <mxGeometry relative="1" as="geometry">
            <Array as="points">
              <mxPoint x="1925" y="374" />
              <mxPoint x="1925" y="374" />
            </Array>
          </mxGeometry>
        </mxCell>
        <mxCell id="A5cPuoOQGIZ8REnbMsVx-141" style="edgeStyle=orthogonalEdgeStyle;rounded=0;orthogonalLoop=1;jettySize=auto;html=1;entryX=0.5;entryY=0;entryDx=0;entryDy=0;" edge="1" parent="1" source="A5cPuoOQGIZ8REnbMsVx-104" target="A5cPuoOQGIZ8REnbMsVx-124">
          <mxGeometry relative="1" as="geometry">
            <Array as="points">
              <mxPoint x="1925" y="494" />
              <mxPoint x="1925" y="494" />
            </Array>
          </mxGeometry>
        </mxCell>
        <mxCell id="A5cPuoOQGIZ8REnbMsVx-142" style="edgeStyle=orthogonalEdgeStyle;rounded=0;orthogonalLoop=1;jettySize=auto;html=1;" edge="1" parent="1" source="A5cPuoOQGIZ8REnbMsVx-127" target="A5cPuoOQGIZ8REnbMsVx-115">
          <mxGeometry relative="1" as="geometry">
            <Array as="points">
              <mxPoint x="1925" y="674" />
              <mxPoint x="1925" y="674" />
            </Array>
          </mxGeometry>
        </mxCell>
        <mxCell id="A5cPuoOQGIZ8REnbMsVx-143" style="edgeStyle=orthogonalEdgeStyle;rounded=0;orthogonalLoop=1;jettySize=auto;html=1;entryX=0.5;entryY=0;entryDx=0;entryDy=0;" edge="1" parent="1" source="A5cPuoOQGIZ8REnbMsVx-117" target="A5cPuoOQGIZ8REnbMsVx-112">
          <mxGeometry relative="1" as="geometry">
            <Array as="points">
              <mxPoint x="1925" y="804" />
              <mxPoint x="1925" y="804" />
            </Array>
          </mxGeometry>
        </mxCell>
        <mxCell id="A5cPuoOQGIZ8REnbMsVx-144" style="edgeStyle=orthogonalEdgeStyle;rounded=0;orthogonalLoop=1;jettySize=auto;html=1;" edge="1" parent="1" source="A5cPuoOQGIZ8REnbMsVx-94" target="A5cPuoOQGIZ8REnbMsVx-99">
          <mxGeometry relative="1" as="geometry">
            <Array as="points">
              <mxPoint x="1475" y="364" />
              <mxPoint x="1475" y="364" />
            </Array>
          </mxGeometry>
        </mxCell>
        <mxCell id="A5cPuoOQGIZ8REnbMsVx-145" style="edgeStyle=orthogonalEdgeStyle;rounded=0;orthogonalLoop=1;jettySize=auto;html=1;" edge="1" parent="1" source="A5cPuoOQGIZ8REnbMsVx-101" target="A5cPuoOQGIZ8REnbMsVx-108">
          <mxGeometry relative="1" as="geometry">
            <Array as="points">
              <mxPoint x="1475" y="504" />
              <mxPoint x="1475" y="504" />
            </Array>
          </mxGeometry>
        </mxCell>
        <mxCell id="A5cPuoOQGIZ8REnbMsVx-146" style="edgeStyle=orthogonalEdgeStyle;rounded=0;orthogonalLoop=1;jettySize=auto;html=1;entryX=0.5;entryY=0;entryDx=0;entryDy=0;" edge="1" parent="1" source="A5cPuoOQGIZ8REnbMsVx-111" target="A5cPuoOQGIZ8REnbMsVx-118">
          <mxGeometry relative="1" as="geometry">
            <Array as="points">
              <mxPoint x="1475" y="644" />
              <mxPoint x="1475" y="644" />
            </Array>
          </mxGeometry>
        </mxCell>
        <mxCell id="A5cPuoOQGIZ8REnbMsVx-147" style="edgeStyle=orthogonalEdgeStyle;rounded=0;orthogonalLoop=1;jettySize=auto;html=1;" edge="1" parent="1" source="A5cPuoOQGIZ8REnbMsVx-120" target="A5cPuoOQGIZ8REnbMsVx-121">
          <mxGeometry relative="1" as="geometry">
            <Array as="points">
              <mxPoint x="1475" y="774" />
              <mxPoint x="1475" y="774" />
            </Array>
          </mxGeometry>
        </mxCell>
      </root>
    </mxGraphModel>
  </diagram>
</mxfile>
